<svg width="16" height="18" viewBox="0 0 16 18" fill="none" xmlns="http://www.w3.org/2000/svg">
<path d="M9.99976 13L6.09082 10.5455M9.99976 5L6.09082 7.5M6.09091 8.6364C6.09091 10.0422 4.95127 11.1819 3.54545 11.1819C2.13964 11.1819 1 10.0422 1 8.6364C1 7.23058 2.13964 6.09094 3.54545 6.09094C4.95127 6.09094 6.09091 7.23058 6.09091 8.6364ZM15.0001 3.54545C15.0001 4.95127 13.8604 6.09091 12.4546 6.09091C11.0488 6.09091 9.90918 4.95127 9.90918 3.54545C9.90918 2.13964 11.0488 1 12.4546 1C13.8604 1 15.0001 2.13964 15.0001 3.54545ZM15.0001 13.7273C15.0001 15.1332 13.8604 16.2728 12.4546 16.2728C11.0488 16.2728 9.90918 15.1332 9.90918 13.7273C9.90918 12.3215 11.0488 11.1819 12.4546 11.1819C13.8604 11.1819 15.0001 12.3215 15.0001 13.7273Z" stroke="#AFB2B6" stroke-width="2" stroke-linecap="round"/>
</svg>
