<svg width="90" height="24" viewBox="0 0 90 24" fill="none" xmlns="http://www.w3.org/2000/svg">
<path d="M15.6711 13.8191H7.49642C7.71074 15.4173 8.20061 16.4976 8.96603 17.06C9.76207 17.5927 11.0633 17.8591 12.8697 17.8591C15.2884 17.8591 18.1052 17.6963 21.32 17.3707L21.9629 21.4551C19.6054 22.5502 16.3141 23.0977 12.089 23.0977C7.83321 23.0977 4.80213 22.2098 2.99573 20.434C1.18933 18.6582 0.286133 15.7281 0.286133 11.6438C0.286133 7.35224 1.15872 4.34817 2.90388 2.63156C4.67967 0.914946 7.6495 0.0566406 11.8134 0.0566406C15.5793 0.0566406 18.3042 0.692969 19.9881 1.96563C21.6721 3.20869 22.5293 5.11768 22.56 7.6926C22.56 9.73478 22.0089 11.2738 20.9066 12.3097C19.8351 13.316 18.0899 13.8191 15.6711 13.8191ZM7.35865 9.86796H13.7882C14.6149 9.86796 15.166 9.67558 15.4415 9.29082C15.7477 8.90607 15.9008 8.34373 15.9008 7.60381C15.9008 6.56793 15.6252 5.8576 15.0741 5.47284C14.523 5.05849 13.5126 4.85131 12.043 4.85131C10.2979 4.85131 9.10382 5.19167 8.46086 5.8724C7.8179 6.52353 7.4505 7.85538 7.35865 9.86796Z" fill="white"/>
<path d="M33.401 0.678171L33.8602 3.87462C36.7382 1.3293 39.6162 0.0566406 42.4942 0.0566406C45.5559 0.0566406 47.5001 1.24051 48.3267 3.60825C50.9904 1.24051 53.7459 0.0566406 56.5933 0.0566406C58.6446 0.0566406 60.2061 0.574584 61.2777 1.61047C62.3493 2.64636 62.8851 4.15579 62.8851 6.13877V22.565H56.134V8.18095C56.134 7.23385 55.9656 6.56793 55.6289 6.18317C55.2921 5.79841 54.6644 5.60603 53.7459 5.60603C53.0111 5.60603 52.3069 5.73921 51.6333 6.00558C50.9598 6.27196 49.98 6.7899 48.6941 7.55942V22.565H42.1727V8.18095C42.1727 7.23385 41.9737 6.56793 41.5757 6.18317C41.2083 5.79841 40.5959 5.60603 39.7387 5.60603C38.5446 5.60603 36.876 6.24236 34.7328 7.51502V22.565H27.9817V0.678171H33.401Z" fill="white"/>
<path d="M69.9307 5.56164L69.2878 1.12212C73.3599 0.411802 77.2941 0.0566406 81.0906 0.0566406C84.1523 0.0566406 86.4027 0.663373 87.8417 1.87684C89.2807 3.06071 90.0002 5.13248 90.0002 8.09216V22.565H84.6269L83.938 19.2353C81.6724 21.8102 78.8862 23.0977 75.5796 23.0977C73.4058 23.0977 71.63 22.5502 70.2522 21.4551C68.8745 20.3304 68.1856 18.7766 68.1856 16.7936V14.5738C68.1856 12.8276 68.7979 11.4662 70.0226 10.4895C71.2473 9.5128 72.9465 9.02445 75.1203 9.02445H83.2032V8.04776C83.1726 6.92308 82.897 6.16837 82.3765 5.78361C81.8867 5.39885 80.9222 5.20647 79.4832 5.20647C76.9726 5.20647 73.7885 5.32486 69.9307 5.56164ZM74.8907 15.0622V15.9057C74.8907 17.4151 75.7786 18.1698 77.5544 18.1698C79.3914 18.1698 81.2743 17.4595 83.2032 16.0389V12.9756H77.0951C75.6255 13.0052 74.8907 13.7007 74.8907 15.0622Z"/>
</svg>
