<svg width="119" height="102" viewBox="0 0 119 102" fill="none" xmlns="http://www.w3.org/2000/svg">
<path d="M60.6115 94.0142C60.2574 94.012 59.9182 93.8718 59.6666 93.6237C59.5445 93.4983 59.4477 93.3507 59.3814 93.1889C59.3103 93.0297 59.2738 92.8573 59.2745 92.6831C59.2731 92.5059 59.3096 92.3305 59.3814 92.1684C59.4105 92.0854 59.4527 92.0075 59.5062 91.9377C59.5501 91.8653 59.6041 91.7996 59.6666 91.7424C60.1963 91.2421 61.0267 91.2421 61.5563 91.7424C62.0776 92.2621 62.0776 93.104 61.5563 93.6237C61.3058 93.8734 60.9659 94.0139 60.6115 94.0142Z" fill="#565B5F"/>
<path fill-rule="evenodd" clip-rule="evenodd" d="M14.841 92.683C14.841 91.9479 15.4396 91.3519 16.1781 91.3519C16.9165 91.3519 17.5151 91.9479 17.5151 92.683C17.5151 93.4182 16.9165 94.0141 16.1781 94.0141C15.8196 94.0189 15.474 93.881 15.218 93.6311C14.9619 93.3812 14.8166 93.04 14.8143 92.683H14.841ZM23.5941 91.3519C22.8556 91.3519 22.257 91.9479 22.257 92.683H22.2303C22.2302 93.0407 22.3748 93.3834 22.6313 93.6338C22.8879 93.8842 23.2348 94.0213 23.5941 94.0142C24.3325 94.0142 24.9311 93.4182 24.9311 92.683C24.9311 91.9479 24.3325 91.3519 23.5941 91.3519ZM29.6641 92.683C29.6641 91.9479 30.2627 91.3519 31.0011 91.3519C31.7395 91.3519 32.3382 91.9479 32.3382 92.683C32.3382 93.4182 31.7395 94.0141 31.0011 94.0141C30.6374 94.0286 30.2834 93.8948 30.021 93.6436C29.7585 93.3924 29.6103 93.0455 29.6106 92.683H29.6641ZM38.4082 91.3519C37.6698 91.3519 37.0712 91.9479 37.0712 92.683H37.0445C37.0444 93.0407 37.1889 93.3834 37.4455 93.6338C37.702 93.8842 38.049 94.0213 38.4082 94.0142C39.1466 94.0142 39.7452 93.4182 39.7452 92.683C39.7452 91.9479 39.1466 91.3519 38.4082 91.3519ZM44.4872 92.683C44.4872 91.9479 45.0858 91.3519 45.8242 91.3519C46.5626 91.3519 47.1612 91.9479 47.1612 92.683C47.1564 93.4162 46.5606 94.0093 45.8242 94.0142C45.465 94.0213 45.118 93.8842 44.8615 93.6338C44.6049 93.3834 44.4604 93.0407 44.4604 92.683H44.4872ZM51.8943 92.683C51.8943 91.9479 52.4929 91.3519 53.2313 91.3519C53.9697 91.3519 54.5683 91.9479 54.5683 92.683C54.5683 93.4182 53.9697 94.0141 53.2313 94.0141C52.4929 94.0141 51.8943 93.4182 51.8943 92.683ZM8.77099 91.3519C8.03257 91.3519 7.43397 91.9479 7.43397 92.683H7.40723C7.40715 93.0407 7.55168 93.3834 7.80824 93.6338C8.06479 93.8842 8.41178 94.0213 8.77099 94.0142C9.5094 94.0142 10.108 93.4182 10.108 92.683C10.108 91.9479 9.5094 91.3519 8.77099 91.3519Z" fill="#565B5F"/>
<path d="M1.33706 94.0142C0.982576 94.0139 0.642729 93.8734 0.39223 93.6237C0.138876 93.376 -0.00265549 93.0366 3.77461e-05 92.6831C0.00034981 92.3301 0.141418 91.9918 0.39223 91.7424C0.452241 91.6769 0.521261 91.6201 0.597239 91.5738C0.668411 91.522 0.74639 91.4802 0.828989 91.4496C0.908906 91.4137 0.992626 91.3869 1.07857 91.3697C1.24985 91.3431 1.42426 91.3431 1.59555 91.3697C1.68149 91.3869 1.76521 91.4137 1.84512 91.4496C1.92686 91.4821 2.00461 91.5238 2.07687 91.5738C2.15117 91.6224 2.21991 91.6789 2.28188 91.7424C2.53269 91.9918 2.67376 92.3301 2.67407 92.6831C2.67183 93.0356 2.53106 93.3732 2.28188 93.6237C2.03138 93.8734 1.69154 94.0139 1.33706 94.0142Z" fill="#565B5F"/>
<path fill-rule="evenodd" clip-rule="evenodd" d="M1.33702 42.1276C0.598603 42.1276 0 42.7235 0 43.4587C0 44.1938 0.598603 44.7898 1.33702 44.7898C2.07543 44.7898 2.67404 44.1938 2.67404 43.4587C2.67404 42.7235 2.07543 42.1276 1.33702 42.1276ZM0 50.4869C0 49.7518 0.598603 49.1558 1.33702 49.1558C2.07543 49.1558 2.67404 49.7518 2.67404 50.4869C2.67404 51.2221 2.07543 51.818 1.33702 51.818C0.598603 51.818 0 51.2221 0 50.4869ZM1.33702 56.193C0.598603 56.193 0 56.7889 0 57.5241C0 58.2592 0.598603 58.8552 1.33702 58.8552C2.07543 58.8552 2.67404 58.2592 2.67404 57.5241C2.67404 56.7889 2.07543 56.193 1.33702 56.193ZM0 64.5523C0 63.8172 0.598603 63.2212 1.33702 63.2212C2.07543 63.2212 2.67404 63.8172 2.67404 64.5523C2.67404 65.2875 2.07543 65.8834 1.33702 65.8834C0.598603 65.8834 0 65.2875 0 64.5523ZM1.33702 70.2583C0.598603 70.2583 0 70.8543 0 71.5894V71.6072C0 72.3423 0.598603 72.9383 1.33702 72.9383C2.07543 72.9383 2.67404 72.3423 2.67404 71.6072C2.67881 71.2511 2.54005 70.9079 2.28879 70.6545C2.03753 70.401 1.69473 70.2583 1.33702 70.2583ZM0 78.6177C0 77.8825 0.598603 77.2866 1.33702 77.2866C2.07543 77.2866 2.67404 77.8825 2.67404 78.6177C2.67404 79.3529 2.07543 79.9488 1.33702 79.9488C0.598603 79.9488 0 79.3529 0 78.6177ZM0 85.646C0 84.9108 0.598603 84.3148 1.33702 84.3148C2.07543 84.3148 2.67404 84.9108 2.67404 85.646C2.67404 86.3811 2.07543 86.9771 1.33702 86.9771C0.598603 86.9771 0 86.3811 0 85.646Z" fill="#565B5F"/>
<path d="M1.33702 37.7615C0.982538 37.7612 0.642691 37.6208 0.392192 37.3711C0.143016 37.1206 0.00223875 36.7829 0 36.4304C0.000312064 36.0775 0.141381 35.7392 0.392192 35.4898C0.452203 35.4242 0.521223 35.3675 0.597201 35.3212C0.671391 35.2818 0.748947 35.2492 0.828951 35.2235L1.08744 35.1259C1.25793 35.0905 1.43393 35.0905 1.60442 35.1259L1.854 35.1969L2.08575 35.3212C2.16005 35.3698 2.22879 35.4263 2.29076 35.4898C2.54157 35.7392 2.68264 36.0775 2.68295 36.4304C2.68295 37.1656 2.08435 37.7615 1.34593 37.7615H1.33702Z" fill="#565B5F"/>
<path fill-rule="evenodd" clip-rule="evenodd" d="M8.77099 35.0992C8.03257 35.0992 7.43397 35.6952 7.43397 36.4304H7.40723C7.40715 36.788 7.55168 37.1307 7.80824 37.3811C8.06479 37.6315 8.41178 37.7686 8.77099 37.7615C9.5094 37.7615 10.108 37.1655 10.108 36.4304C10.108 35.6952 9.5094 35.0992 8.77099 35.0992ZM14.841 36.4304C14.841 35.6952 15.4396 35.0992 16.1781 35.0992C16.9165 35.0992 17.5151 35.6952 17.5151 36.4304C17.5151 37.1655 16.9165 37.7615 16.1781 37.7615C15.8189 37.7686 15.4719 37.6315 15.2153 37.3811C14.9588 37.1307 14.8142 36.788 14.8143 36.4304H14.841ZM23.5941 35.0992C22.8556 35.0992 22.257 35.6952 22.257 36.4304H22.2303C22.2302 36.788 22.3748 37.1307 22.6313 37.3811C22.8879 37.6315 23.2348 37.7686 23.5941 37.7615C24.3325 37.7615 24.9311 37.1655 24.9311 36.4304C24.9311 35.6952 24.3325 35.0992 23.5941 35.0992ZM29.6641 36.4304C29.6641 35.6952 30.2627 35.0992 31.0011 35.0992C31.7395 35.0992 32.3382 35.6952 32.3382 36.4304C32.3382 37.1655 31.7395 37.7615 31.0011 37.7615C30.6374 37.776 30.2834 37.6421 30.021 37.3909C29.7585 37.1397 29.6103 36.7928 29.6106 36.4304H29.6641ZM38.4082 35.0992C37.6698 35.0992 37.0712 35.6952 37.0712 36.4304H37.0445C37.0444 36.788 37.1889 37.1307 37.4455 37.3811C37.702 37.6315 38.049 37.7686 38.4082 37.7615C39.1466 37.7615 39.7452 37.1655 39.7452 36.4304C39.7452 35.6952 39.1466 35.0992 38.4082 35.0992ZM44.4872 36.4304C44.4872 35.6952 45.0858 35.0992 45.8242 35.0992C46.5626 35.0992 47.1612 35.6952 47.1612 36.4304C47.1612 37.1655 46.5626 37.7615 45.8242 37.7615C45.465 37.7686 45.118 37.6315 44.8615 37.3811C44.6049 37.1307 44.4604 36.788 44.4604 36.4304H44.4872ZM51.8943 36.4304C51.8943 35.6952 52.4929 35.0992 53.2313 35.0992C53.9697 35.0992 54.5683 35.6952 54.5683 36.4304C54.5683 37.1655 53.9697 37.7615 53.2313 37.7615C52.4929 37.7615 51.8943 37.1655 51.8943 36.4304Z" fill="#565B5F"/>
<path d="M60.6111 37.7615C60.1623 37.765 59.742 37.5426 59.4939 37.1703C59.2457 36.7979 59.2033 36.326 59.381 35.9157C59.412 35.8335 59.454 35.7559 59.5058 35.6849C59.5516 35.614 59.6055 35.5484 59.6663 35.4897C59.9851 35.1764 60.4389 35.0402 60.8785 35.1259L61.1281 35.1969C61.2052 35.2329 61.2797 35.2744 61.3509 35.3211C61.4269 35.3674 61.4959 35.4242 61.5559 35.4897C61.6195 35.5483 61.6763 35.6138 61.7253 35.6849C61.7253 35.7648 61.8144 35.8358 61.8501 35.9157C61.882 35.9959 61.9059 36.0792 61.9214 36.1641C62.0107 36.602 61.8735 37.0553 61.5559 37.371C61.4958 37.434 61.4267 37.4878 61.3509 37.5307C61.2818 37.5807 61.207 37.6224 61.1281 37.655C60.9653 37.7265 60.7891 37.7628 60.6111 37.7615Z" fill="#565B5F"/>
<path fill-rule="evenodd" clip-rule="evenodd" d="M60.6114 42.1276C59.873 42.1276 59.2744 42.7235 59.2744 43.4587C59.2744 44.1938 59.873 44.7898 60.6114 44.7898C61.3498 44.7898 61.9485 44.1938 61.9485 43.4587C61.9485 42.7235 61.3498 42.1276 60.6114 42.1276ZM59.2744 50.4869C59.2744 49.7518 59.873 49.1558 60.6114 49.1558C61.3498 49.1558 61.9485 49.7518 61.9485 50.4869C61.9485 51.2221 61.3498 51.818 60.6114 51.818C59.873 51.818 59.2744 51.2221 59.2744 50.4869ZM60.6114 56.193C59.873 56.193 59.2744 56.7889 59.2744 57.5241C59.2744 58.2592 59.873 58.8552 60.6114 58.8552C61.3498 58.8552 61.9485 58.2592 61.9485 57.5241C61.9485 56.7889 61.3498 56.193 60.6114 56.193ZM59.2744 64.5523C59.2744 63.8172 59.873 63.2212 60.6114 63.2212C61.3498 63.2212 61.9485 63.8172 61.9485 64.5523C61.9485 65.2875 61.3498 65.8834 60.6114 65.8834C59.873 65.8834 59.2744 65.2875 59.2744 64.5523ZM60.6114 70.2495C59.8716 70.2543 59.2744 70.8528 59.2744 71.5894V71.6072C59.2793 72.3389 59.8765 72.9294 60.6114 72.9294C61.3464 72.9294 61.9435 72.3389 61.9484 71.6072C61.9532 71.2503 61.8147 70.9062 61.5637 70.6513C61.3127 70.3965 60.97 70.2518 60.6114 70.2495ZM59.2744 78.6177C59.2744 77.8825 59.873 77.2866 60.6114 77.2866C61.3498 77.2866 61.9485 77.8825 61.9485 78.6177C61.9485 79.3529 61.3498 79.9488 60.6114 79.9488C59.873 79.9488 59.2744 79.3529 59.2744 78.6177ZM59.2744 85.646C59.2744 84.9108 59.873 84.3148 60.6114 84.3148C61.3498 84.3148 61.9485 84.9108 61.9485 85.646C61.9485 86.3811 61.3498 86.9771 60.6114 86.9771C59.873 86.9771 59.2744 86.3811 59.2744 85.646Z" fill="#565B5F"/>
<path d="M15.0283 1.48438H96.3725V79.1768H15.0283V1.48438Z" fill="#323537"/>
<g opacity="0.5">
<path d="M22.3906 8.51257H89.0187V72.1485H22.3906V8.51257Z" fill="#565B5F"/>
</g>
<path d="M14.5771 1H97.3044V79.9091H14.5771V1Z" stroke="#565B5F"/>
<rect x="30.208" y="20.2351" width="20.3636" height="20.3636" rx="10.1818" fill="#565B5F"/>
<rect x="40.0752" y="31.1149" width="25.7866" height="28.4147" fill="#323537"/>
<path fill-rule="evenodd" clip-rule="evenodd" d="M63.9744 59.7662C64.7043 59.7721 65.4338 59.778 66.1555 59.778C66.1555 58.5711 66.1555 57.4086 66.0575 56.1485L66.0129 54.3205L66.0575 52.5456C66.1022 51.8436 66.0873 51.096 66.0721 50.3403C66.0632 49.8925 66.0541 49.4418 66.0575 48.996C66.0617 48.4269 66.084 47.8657 66.1063 47.3059C66.1309 46.6874 66.1555 46.0706 66.1555 45.4464L66.1822 43.4941L66.2446 41.7193C66.1822 40.539 66.1822 39.3144 66.2446 38.1697C66.307 37.0249 66.3249 35.7825 66.2446 34.62C66.2029 34.016 66.2214 33.4048 66.2401 32.7888C66.2573 32.2194 66.2746 31.6459 66.2446 31.0704C66.235 30.868 66.0648 30.7104 65.8614 30.7155C65.6036 30.724 65.3458 30.7329 65.088 30.7418C63.1977 30.8071 61.3073 30.8723 59.4169 30.7864H57.8036H56.1903H52.9636C52.1457 30.7932 51.3264 30.8205 50.5069 30.8479C49.1741 30.8924 47.8405 30.9369 46.5102 30.8929H40.0658C39.9742 30.8974 39.9009 30.9703 39.8965 31.0615C39.8965 31.4546 39.8994 31.8477 39.9024 32.2411C39.9083 33.029 39.9143 33.8181 39.8965 34.6112C39.8875 35.0102 39.8755 35.4082 39.8635 35.8055C39.8399 36.5923 39.8162 37.3766 39.8162 38.1608C39.8697 38.7465 39.8697 39.341 39.8697 39.9356L39.7895 41.7104V45.26C39.7895 46.0502 39.7816 46.8403 39.7736 47.6301C39.7578 49.2087 39.742 50.7859 39.7895 52.3593C39.8608 53.1465 39.837 53.9376 39.8132 54.7273C39.8014 55.1217 39.7895 55.5158 39.7895 55.9089V59.4585C39.7895 59.635 39.9332 59.778 40.1104 59.778C40.9325 59.778 41.7585 59.8023 42.5855 59.8266C43.9371 59.8664 45.2912 59.9062 46.635 59.8401C47.7047 59.778 48.7921 59.7603 49.8974 59.8401C50.6349 59.8934 51.3565 59.8756 52.0755 59.8578C52.4341 59.849 52.7919 59.8401 53.1508 59.8401C53.4897 59.8304 53.8273 59.8197 54.1644 59.8091C55.9722 59.7521 57.7629 59.6957 59.6487 59.778C61.0514 59.7425 62.5135 59.7543 63.9744 59.7662ZM65.6474 55.7314V59.2811H65.6118C65.1101 59.2769 64.6124 59.2786 64.1161 59.2803C62.5048 59.2859 60.9082 59.2915 59.2387 59.0947C57.861 59.1716 56.4319 59.146 54.9988 59.1204C54.2808 59.1076 53.5618 59.0947 52.8477 59.0947C52.4905 59.0947 52.1333 59.0878 51.7768 59.0809C51.0657 59.0671 50.3572 59.0533 49.6567 59.0947C48.6049 59.1568 47.5442 59.1568 46.4746 59.1568H40.3002C40.3027 58.8863 40.3026 58.6153 40.3026 58.3441C40.3023 57.5055 40.302 56.6651 40.3778 55.829C40.4338 55.2112 40.4092 54.5934 40.3845 53.9743C40.3621 53.4107 40.3396 52.8461 40.3778 52.2794C40.442 50.863 40.4484 49.4433 40.4548 48.0224C40.4591 47.0754 40.4634 46.1278 40.4848 45.1802C40.4848 44.7831 40.4967 44.3871 40.5086 43.9917C40.5323 43.2029 40.556 42.4167 40.4848 41.6305C40.4709 41.4463 40.4537 41.262 40.4365 41.078C40.3982 40.6683 40.36 40.2599 40.36 39.8557C40.3768 39.2621 40.4244 38.6697 40.5026 38.0809C40.55 37.184 40.4842 36.282 40.4185 35.3826C40.3978 35.0985 40.3771 34.8147 40.36 34.5313C40.3164 33.8097 40.3461 33.0849 40.3757 32.3607C40.3897 32.0188 40.4038 31.677 40.41 31.3358C42.4434 31.3806 44.4768 31.3734 46.5102 31.239C47.8168 31.1527 49.1267 31.214 50.4359 31.2754C51.2791 31.3149 52.122 31.3544 52.9636 31.3544H56.1813H57.7947L59.408 31.2923C60.8401 31.1976 62.2722 31.2292 63.7043 31.2607C64.2965 31.2738 64.8887 31.2868 65.4809 31.2909C65.4585 31.9633 65.4701 32.6222 65.4819 33.2887C65.4889 33.684 65.4959 34.082 65.4959 34.4869C65.4959 34.8919 65.4869 35.2908 65.4779 35.6872C65.4601 36.472 65.4426 37.2464 65.4959 38.0366C65.56 39.2189 65.56 40.4038 65.4959 41.5862C65.5035 41.8348 65.5159 42.0851 65.5283 42.3362C65.5451 42.6767 65.5621 43.0188 65.5672 43.361C65.5718 43.6699 65.5428 43.9644 65.5138 44.2583C65.487 44.53 65.4602 44.8012 65.4602 45.0826L65.585 48.6322C65.585 49.0491 65.5759 49.4508 65.5668 49.8469C65.5491 50.6227 65.5319 51.377 65.585 52.1818L65.6474 53.9566V55.7314ZM65.4809 31.2909C65.6047 31.2918 65.7286 31.2923 65.8524 31.2923L65.4959 30.9373C65.4897 31.0557 65.4848 31.1735 65.4809 31.2909ZM40.41 31.3358C40.4122 31.2177 40.4134 31.0996 40.4134 30.9817L40.0658 31.3278C40.1806 31.3306 40.2953 31.3333 40.41 31.3358ZM40.3002 59.1568H40.0658L40.2976 59.3787C40.2987 59.3048 40.2996 59.2308 40.3002 59.1568Z" fill="#323537"/>
<path d="M70.6126 43.5652L61.9131 60.4259L81.2107 59.8047L71.1296 43.5386C71.0734 43.4466 70.9711 43.3928 70.8631 43.3983C70.7552 43.4039 70.659 43.468 70.6126 43.5652Z" fill="#565B5F"/>
<path fill-rule="evenodd" clip-rule="evenodd" d="M70.7911 43.0415C70.5711 43.07 70.3802 43.2067 70.2831 43.4053C70.0698 43.8327 69.8524 44.2601 69.6349 44.6878C69.1343 45.6719 68.6331 46.6574 68.1795 47.6471L67.0475 49.7503L66.0046 51.8712C65.7157 52.4256 65.4445 52.9854 65.1746 53.5427C64.7531 54.4127 64.3346 55.2765 63.8565 56.1041C63.7053 56.3837 63.5439 56.6588 63.3824 56.9344C63.1439 57.3411 62.905 57.7486 62.6977 58.1718C62.3501 58.8817 61.949 59.565 61.5479 60.2483C61.5348 60.3068 61.5348 60.3674 61.5479 60.4258C61.5431 60.527 61.5789 60.626 61.6474 60.7009C61.716 60.7758 61.8117 60.8205 61.9133 60.8251C62.8601 60.872 63.8068 60.815 64.7517 60.758C65.4171 60.718 66.0815 60.6779 66.7444 60.6743C67.5873 60.6696 68.4302 60.6405 69.2744 60.6113C70.0371 60.5849 70.8008 60.5585 71.5666 60.55C72.5695 60.539 73.569 60.4662 74.5672 60.3936C75.1747 60.3493 75.7817 60.3052 76.3888 60.2749C76.6559 60.2749 76.9239 60.2828 77.1923 60.2907C77.7301 60.3065 78.2692 60.3223 78.8043 60.2749L81.2199 60.1596C81.2805 60.1596 81.3396 60.141 81.3892 60.1063C81.4694 60.0588 81.5264 59.9804 81.5466 59.8897C81.5669 59.799 81.5486 59.704 81.4962 59.6271L80.1592 57.5417C79.7373 56.8614 79.3183 56.1515 78.9024 55.412L76.3531 51.1701C75.9609 50.4691 75.5331 49.7592 75.0696 49.0581C74.9459 48.8711 74.8223 48.6866 74.6993 48.5031C74.3613 47.9988 74.0285 47.5021 73.7147 46.9816L72.3956 44.8873L71.736 43.8402C71.727 43.825 71.7182 43.8103 71.7097 43.7959C71.6084 43.6249 71.5356 43.5021 71.3794 43.2811C71.2408 43.1019 71.0162 43.0104 70.7911 43.0415ZM70.87 43.7959C70.8823 43.7722 70.8947 43.7485 70.907 43.7248C70.9159 43.7248 70.8179 43.7159 70.8179 43.7159L70.87 43.7959ZM80.6595 59.5343L78.2606 55.7847C77.8444 55.13 77.4535 54.4676 77.0633 53.8065C76.6179 53.0517 76.1734 52.2986 75.6935 51.5606C75.5479 51.3269 75.4004 51.0942 75.2528 50.8615C74.9577 50.3961 74.6625 49.9307 74.3833 49.4575C74.254 49.2384 74.1273 49.0177 74.0005 48.7969C73.7164 48.3019 73.4319 47.8063 73.1175 47.3277L71.7984 45.2423L71.1298 44.1951L70.87 43.7959C70.6997 44.1228 70.5304 44.4501 70.3611 44.7775C69.8162 45.8307 69.2714 46.884 68.6965 47.9222L67.6982 50.0786L66.6286 52.1907C66.0303 53.3075 65.4419 54.4272 64.8539 55.5463C64.0516 57.0732 63.2499 58.599 62.4241 60.1151C62.2419 60.1152 62.0597 60.1152 61.8777 60.1152L62.1718 60.5767C62.2562 60.4229 62.3403 60.269 62.4241 60.1151C63.8482 60.1142 65.2785 60.1061 66.7088 60.0353C67.4347 59.9994 68.1588 59.9958 68.8818 59.9922C69.7659 59.9878 70.6484 59.9834 71.531 59.92C72.5049 59.8499 73.4821 59.8355 74.4586 59.8211C75.0908 59.8117 75.7226 59.8024 76.3531 59.778C77.1553 59.7469 77.9598 59.6959 78.7642 59.6449C79.3963 59.6048 80.0285 59.5647 80.6595 59.5343ZM80.6595 59.5343L80.9346 59.9643L81.1753 59.5118C81.0035 59.5184 80.8315 59.526 80.6595 59.5343Z" fill="#565B5F"/>
<path d="M93.8047 100.204C106.783 100.204 117.305 89.6823 117.305 76.7036C117.305 63.7249 106.783 53.2036 93.8047 53.2036C80.826 53.2036 70.3047 63.7249 70.3047 76.7036C70.3047 89.6823 80.826 100.204 93.8047 100.204Z" fill="#565B5F" stroke="#565B5F" stroke-width="2" stroke-linecap="round" stroke-linejoin="round"/>
<path d="M99.0747 85.1219L94.7847 81.969C94.3769 81.6719 93.8124 81.6719 93.4047 81.969L89.0747 85.1219C88.7589 85.3652 88.3285 85.4205 87.957 85.2656C87.5855 85.1108 87.3343 84.7712 87.3047 84.384V70.9098C87.3435 70.1198 87.7093 69.3773 88.3212 68.8466C88.9332 68.316 89.7406 68.0411 90.5647 68.0827H97.5647C98.3938 68.0464 99.2034 68.3302 99.8124 68.8706C100.421 69.411 100.779 70.1628 100.805 70.9577V84.384C100.766 84.7573 100.521 85.0819 100.163 85.2345C99.8057 85.387 99.3901 85.344 99.0747 85.1219Z" fill="#AFB2B6" fill-opacity="0.7"/>
</svg>
